<?xml version="1.0" encoding="UTF-8"?>
<!DOCTYPE svg PUBLIC "-//W3C//DTD SVG 1.1//EN" "http://www.w3.org/Graphics/SVG/1.1/DTD/svg11.dtd">
<svg xmlns="http://www.w3.org/2000/svg" version="1.1" width="512px" height="512px" style="shape-rendering:geometricPrecision; text-rendering:geometricPrecision; image-rendering:optimizeQuality; fill-rule:evenodd; clip-rule:evenodd" xmlns:xlink="http://www.w3.org/1999/xlink">
<g><path style="opacity:1" fill="#e9eae9" d="M 39.5,11.5 C 78.1681,11.3333 116.835,11.5 155.5,12C 174.628,16.0797 183.795,27.913 183,47.5C 180.467,61.0331 172.634,69.8665 159.5,74C 146.167,74.3333 132.833,74.6667 119.5,75C 141.029,96.1948 162.195,117.695 183,139.5C 191.032,155.61 188.532,169.776 175.5,182C 163.705,188.903 151.705,189.237 139.5,183C 117.695,162.195 96.1948,141.029 75,119.5C 74.6667,132.833 74.3333,146.167 74,159.5C 65.4669,180.847 50.3003,187.681 28.5,180C 19.0417,174.535 13.5417,166.368 12,155.5C 11.3333,116.833 11.3333,78.1667 12,39.5C 14.6794,23.6549 23.846,14.3215 39.5,11.5 Z"/></g>
<g><path style="opacity:1" fill="#e9eae9" d="M 355.5,11.5 C 394.168,11.3333 432.835,11.5 471.5,12C 487.333,14.5 496.5,23.6667 499,39.5C 499.667,78.1667 499.667,116.833 499,155.5C 494.92,174.628 483.087,183.795 463.5,183C 449.967,180.467 441.134,172.634 437,159.5C 436.667,146.167 436.333,132.833 436,119.5C 414.805,141.029 393.305,162.195 371.5,183C 355.39,191.032 341.224,188.532 329,175.5C 322.097,163.705 321.763,151.705 328,139.5C 348.805,117.695 369.971,96.1948 391.5,75C 378.167,74.6667 364.833,74.3333 351.5,74C 330.153,65.4669 323.319,50.3003 331,28.5C 336.621,19.0276 344.788,13.361 355.5,11.5 Z"/></g>
<g><path style="opacity:1" fill="#e9eae9" d="M 148.5,323.5 C 167.791,320.665 180.624,328.331 187,346.5C 189.116,356.776 187.116,366.11 181,374.5C 160.5,395 140,415.5 119.5,436C 132.833,436.333 146.167,436.667 159.5,437C 178.575,443.978 186.075,457.478 182,477.5C 177.514,489.997 168.68,497.163 155.5,499C 116.833,499.667 78.1667,499.667 39.5,499C 23.6667,496.5 14.5,487.333 12,471.5C 11.3333,432.833 11.3333,394.167 12,355.5C 14.3906,340.11 23.2239,330.943 38.5,328C 56.5882,326.457 68.4215,334.29 74,351.5C 74.3333,364.833 74.6667,378.167 75,391.5C 95.5,371 116,350.5 136.5,330C 140.434,327.536 144.434,325.369 148.5,323.5 Z"/></g>
<g><path style="opacity:1" fill="#e9eae9" d="M 346.5,323.5 C 356.78,321.882 366.113,324.049 374.5,330C 395,350.5 415.5,371 436,391.5C 436.333,378.167 436.667,364.833 437,351.5C 445.533,330.153 460.7,323.319 482.5,331C 491.958,336.465 497.458,344.632 499,355.5C 499.667,394.167 499.667,432.833 499,471.5C 496.5,487.333 487.333,496.5 471.5,499C 432.833,499.667 394.167,499.667 355.5,499C 336.372,494.92 327.205,483.087 328,463.5C 330.533,449.967 338.366,441.134 351.5,437C 364.833,436.667 378.167,436.333 391.5,436C 371,415.5 350.5,395 330,374.5C 322.536,363.09 321.536,351.09 327,338.5C 331.688,330.959 338.188,325.959 346.5,323.5 Z"/></g>
</svg>
