<?xml version="1.0" encoding="UTF-8"?>
<!DOCTYPE svg PUBLIC "-//W3C//DTD SVG 1.1//EN" "http://www.w3.org/Graphics/SVG/1.1/DTD/svg11.dtd">
<svg xmlns="http://www.w3.org/2000/svg" version="1.1" width="512px" height="512px" style="shape-rendering:geometricPrecision; text-rendering:geometricPrecision; image-rendering:optimizeQuality; fill-rule:evenodd; clip-rule:evenodd" xmlns:xlink="http://www.w3.org/1999/xlink">
<g><path style="opacity:1" fill="#e9eae9" d="M 55.5,31.5 C 65.1913,30.1624 74.1913,31.9957 82.5,37C 109.014,63.6805 135.68,90.1805 162.5,116.5C 174.319,105.181 185.986,93.6809 197.5,82C 205.743,78.0468 213.409,78.8801 220.5,84.5C 221.806,85.9122 222.64,87.5789 223,89.5C 223.667,130.833 223.667,172.167 223,213.5C 221.833,218.667 218.667,221.833 213.5,223C 172.167,223.667 130.833,223.667 89.5,223C 82.6604,220.027 78.9937,214.693 78.5,207C 79.133,203.633 80.2997,200.467 82,197.5C 93.6809,185.986 105.181,174.319 116.5,162.5C 90.1805,135.68 63.6805,109.014 37,82.5C 25.7308,59.0571 31.8974,42.0571 55.5,31.5 Z"/></g>
<g><path style="opacity:1" fill="#e9eae9" d="M 439.5,31.5 C 463.31,29.3272 476.644,39.9938 479.5,63.5C 479.8,70.4348 477.967,76.7681 474,82.5C 447.32,109.014 420.82,135.68 394.5,162.5C 405.819,174.319 417.319,185.986 429,197.5C 433.1,204.059 433.1,210.725 429,217.5C 427.039,220.135 424.539,221.969 421.5,223C 380.167,223.667 338.833,223.667 297.5,223C 292.333,221.833 289.167,218.667 288,213.5C 287.333,172.167 287.333,130.833 288,89.5C 292.399,80.5575 299.566,77.3908 309.5,80C 310.833,80.6667 312.167,81.3333 313.5,82C 325.014,93.6809 336.681,105.181 348.5,116.5C 375.32,90.1805 401.986,63.6805 428.5,37C 432.259,35.1207 435.925,33.2874 439.5,31.5 Z"/></g>
<g><path style="opacity:1" fill="#e9eae9" d="M 89.5,287.5 C 130.835,287.333 172.168,287.5 213.5,288C 218.667,289.167 221.833,292.333 223,297.5C 223.667,338.833 223.667,380.167 223,421.5C 218.245,430.302 211.079,433.468 201.5,431C 200.167,430.333 198.833,429.667 197.5,429C 185.986,417.319 174.319,405.819 162.5,394.5C 135.68,420.82 109.014,447.32 82.5,474C 65.317,483.399 50.1503,480.899 37,466.5C 29.6667,453.833 29.6667,441.167 37,428.5C 63.6805,401.986 90.1805,375.32 116.5,348.5C 105.181,336.681 93.6809,325.014 82,313.5C 77.4501,305.329 78.2835,297.663 84.5,290.5C 86.1446,289.304 87.8113,288.304 89.5,287.5 Z"/></g>
<g><path style="opacity:1" fill="#e9eae9" d="M 297.5,287.5 C 338.835,287.333 380.168,287.5 421.5,288C 428.352,291.009 432.019,296.342 432.5,304C 431.832,307.32 430.665,310.487 429,313.5C 417.319,325.014 405.819,336.681 394.5,348.5C 420.82,375.32 447.32,401.986 474,428.5C 483.399,445.683 480.899,460.85 466.5,474C 453.833,481.333 441.167,481.333 428.5,474C 401.986,447.32 375.32,420.82 348.5,394.5C 336.681,405.819 325.014,417.319 313.5,429C 305.437,433.367 297.77,432.533 290.5,426.5C 289.194,425.088 288.36,423.421 288,421.5C 287.333,379.833 287.333,338.167 288,296.5C 289.871,292.006 293.038,289.006 297.5,287.5 Z"/></g>
</svg>
