<?xml version="1.0" encoding="UTF-8"?>
<!DOCTYPE svg PUBLIC "-//W3C//DTD SVG 1.1//EN" "http://www.w3.org/Graphics/SVG/1.1/DTD/svg11.dtd">
<svg xmlns="http://www.w3.org/2000/svg" version="1.1" width="512px" height="512px" style="shape-rendering:geometricPrecision; text-rendering:geometricPrecision; image-rendering:optimizeQuality; fill-rule:evenodd; clip-rule:evenodd" xmlns:xlink="http://www.w3.org/1999/xlink">
<g><path style="opacity:1" fill="#e9eae9" d="M 226.5,75.5 C 240.716,75.0094 250.216,81.3427 255,94.5C 255.667,201.833 255.667,309.167 255,416.5C 248.22,432.638 236.386,438.138 219.5,433C 217.004,431.92 214.67,430.586 212.5,429C 180.5,397 148.5,365 116.5,333C 92.5,332.667 68.5,332.333 44.5,332C 33.5887,329.421 27.0887,322.587 25,311.5C 24.3333,274.167 24.3333,236.833 25,199.5C 27.0887,188.413 33.5887,181.579 44.5,179C 68.5,178.667 92.5,178.333 116.5,178C 148.5,146 180.5,114 212.5,82C 216.892,78.9669 221.559,76.8002 226.5,75.5 Z"/></g>
<g><path style="opacity:1" fill="#e9eae9" d="M 325.5,178.5 C 332.856,177.768 339.856,178.934 346.5,182C 358.985,193.651 371.318,205.485 383.5,217.5C 394.653,206.848 405.653,196.014 416.5,185C 426.529,177.638 437.196,176.638 448.5,182C 461.112,191.757 463.945,203.924 457,218.5C 445.349,230.985 433.515,243.318 421.5,255.5C 432.152,266.653 442.986,277.653 454,288.5C 461.809,299.359 462.476,310.693 456,322.5C 447.427,332.244 436.927,335.077 424.5,331C 421.567,329.729 418.901,328.062 416.5,326C 405.653,314.986 394.653,304.152 383.5,293.5C 372.347,304.152 361.347,314.986 350.5,326C 339.641,333.809 328.307,334.476 316.5,328C 306.756,319.427 303.923,308.927 308,296.5C 309.271,293.567 310.938,290.901 313,288.5C 324.014,277.653 334.848,266.653 345.5,255.5C 334.848,244.347 324.014,233.347 313,222.5C 305.191,211.641 304.524,200.307 311,188.5C 314.977,183.774 319.811,180.441 325.5,178.5 Z"/></g>
</svg>
