<?xml version="1.0" encoding="UTF-8"?>
<!DOCTYPE svg PUBLIC "-//W3C//DTD SVG 1.1//EN" "http://www.w3.org/Graphics/SVG/1.1/DTD/svg11.dtd">
<svg xmlns="http://www.w3.org/2000/svg" version="1.1" width="512px" height="512px" style="shape-rendering:geometricPrecision; text-rendering:geometricPrecision; image-rendering:optimizeQuality; fill-rule:evenodd; clip-rule:evenodd" xmlns:xlink="http://www.w3.org/1999/xlink">
<g><path style="opacity:1" fill="#e9eae9" d="M 387.5,66.5 C 395.556,65.5765 402.889,67.4099 409.5,72C 466.739,130.365 491.906,200.532 485,282.5C 478.214,343.231 453.381,395.064 410.5,438C 395.66,447.828 382.493,445.994 371,432.5C 366.061,422.272 366.394,412.272 372,402.5C 428.718,343.31 446.385,273.976 425,194.5C 413.89,161.092 395.89,132.092 371,107.5C 362.345,87.9424 367.845,74.2758 387.5,66.5 Z"/></g>
<g><path style="opacity:1" fill="#e9eae9" d="M 227.5,75.5 C 241.238,75.4285 250.404,81.7619 255,94.5C 255.667,201.833 255.667,309.167 255,416.5C 248.22,432.638 236.386,438.138 219.5,433C 217.004,431.92 214.67,430.586 212.5,429C 180.5,397 148.5,365 116.5,333C 92.5,332.667 68.5,332.333 44.5,332C 33.5887,329.421 27.0887,322.587 25,311.5C 24.3333,274.167 24.3333,236.833 25,199.5C 27.0887,188.413 33.5887,181.579 44.5,179C 68.5,178.667 92.5,178.333 116.5,178C 148.5,146 180.5,114 212.5,82C 217.135,78.6746 222.135,76.5079 227.5,75.5 Z"/></g>
<g><path style="opacity:1" fill="#e9eae9" d="M 317.5,138.5 C 324.427,138.428 330.76,140.261 336.5,144C 375.618,183.698 390.451,231.198 381,286.5C 374.091,317.828 359.257,344.661 336.5,367C 322.574,375.096 310.074,373.263 299,361.5C 293,351.167 293,340.833 299,330.5C 329.475,299.599 338.475,263.266 326,221.5C 320.174,205.687 311.174,192.02 299,180.5C 290.738,165.13 293.571,152.297 307.5,142C 310.85,140.514 314.184,139.347 317.5,138.5 Z"/></g>
</svg>
